<?xml version="1.0" encoding="UTF-8"?>
<!DOCTYPE svg PUBLIC "-//W3C//DTD SVG 1.1//EN" "http://www.w3.org/Graphics/SVG/1.1/DTD/svg11.dtd">
<svg xmlns="http://www.w3.org/2000/svg" version="1.1" width="68px" height="68px" style="shape-rendering:geometricPrecision; text-rendering:geometricPrecision; image-rendering:optimizeQuality; fill-rule:evenodd; clip-rule:evenodd" xmlns:xlink="http://www.w3.org/1999/xlink">
<g><path style="opacity:1" fill="#3facd2" d="M 25.5,0.5 C 26.4972,0.470076 27.1639,0.970076 27.5,2C 26.7101,5.35597 25.7101,8.52264 24.5,11.5C 24.6716,10.5084 24.3382,9.84171 23.5,9.5C 22.8485,8.90935 22.1818,8.24269 21.5,7.5C 20.1667,9.16667 18.8333,10.8333 17.5,12.5C 16.15,9.4535 16.9833,7.12017 20,5.5C 20.7401,4.25057 20.5735,3.25057 19.5,2.5C 21.1016,0.926057 23.1016,0.25939 25.5,0.5 Z"/></g>
<g><path style="opacity:1" fill="#2584c3" d="M 38.5,-0.5 C 39.5,-0.5 40.5,-0.5 41.5,-0.5C 45.5727,0.703954 49.2393,2.70395 52.5,5.5C 50.55,5.07701 48.55,4.74368 46.5,4.5C 45.1667,6.5 45.1667,8.5 46.5,10.5C 49.6461,12.0479 52.9794,13.0479 56.5,13.5C 58.1139,15.4559 59.7806,17.4559 61.5,19.5C 60.7627,21.3818 59.5961,22.0485 58,21.5C 57.3162,20.2161 57.4829,19.0495 58.5,18C 57.1807,17.805 55.8474,17.9717 54.5,18.5C 54.5,17.5 54.5,16.5 54.5,15.5C 50.8548,14.3484 47.1882,13.1818 43.5,12C 41.1902,11.5034 38.8568,11.3367 36.5,11.5C 36.3801,9.26552 36.7135,7.09885 37.5,5C 36.9067,3.11833 35.5733,2.11833 33.5,2C 35.1749,1.01469 36.8415,0.181358 38.5,-0.5 Z"/></g>
<g><path style="opacity:1" fill="#1970bc" d="M 52.5,5.5 C 54.7488,6.07978 56.4154,7.41311 57.5,9.5C 56.448,9.35055 55.448,9.51722 54.5,10C 55.8228,10.8159 56.4894,11.9826 56.5,13.5C 52.9794,13.0479 49.6461,12.0479 46.5,10.5C 45.1667,8.5 45.1667,6.5 46.5,4.5C 48.55,4.74368 50.55,5.07701 52.5,5.5 Z"/></g>
<g><path style="opacity:1" fill="#46b8d4" d="M 19.5,2.5 C 20.5735,3.25057 20.7401,4.25057 20,5.5C 16.9833,7.12017 16.15,9.4535 17.5,12.5C 18.8333,10.8333 20.1667,9.16667 21.5,7.5C 22.1818,8.24269 22.8485,8.90935 23.5,9.5C 23.5792,10.9305 23.2458,12.2638 22.5,13.5C 20.8333,14.5 19.5,15.8333 18.5,17.5C 19.3202,19.1112 20.6536,19.7778 22.5,19.5C 22.5,19.8333 22.5,20.1667 22.5,20.5C 20.7085,20.634 19.0418,20.3007 17.5,19.5C 17.5,18.8333 17.1667,18.5 16.5,18.5C 14.2227,17.9158 12.2227,16.7491 10.5,15C 11.4746,12.7048 12.8079,10.7048 14.5,9C 14.1639,7.97008 13.4972,7.47008 12.5,7.5C 12.1667,7.5 11.8333,7.5 11.5,7.5C 13.6291,5.04993 16.2957,3.38326 19.5,2.5 Z"/></g>
<g><path style="opacity:1" fill="#2f97c9" d="M 33.5,-0.5 C 35.1667,-0.5 36.8333,-0.5 38.5,-0.5C 36.8415,0.181358 35.1749,1.01469 33.5,2C 35.5733,2.11833 36.9067,3.11833 37.5,5C 36.7135,7.09885 36.3801,9.26552 36.5,11.5C 38.8568,11.3367 41.1902,11.5034 43.5,12C 47.1882,13.1818 50.8548,14.3484 54.5,15.5C 54.5,16.5 54.5,17.5 54.5,18.5C 51.9933,17.1084 49.3267,16.1084 46.5,15.5C 42.3656,14.5151 38.0323,14.1818 33.5,14.5C 32.791,13.596 31.791,13.2627 30.5,13.5C 30.2572,10.1174 30.9239,6.95076 32.5,4C 31.8333,3.33333 31.1667,2.66667 30.5,2C 31.9423,1.62325 32.9423,0.789915 33.5,-0.5 Z"/></g>
<g><path style="opacity:1" fill="#3eacd0" d="M 23.5,9.5 C 24.3382,9.84171 24.6716,10.5084 24.5,11.5C 24.0077,15.2896 24.841,15.9563 27,13.5C 27.6667,14.1667 28.3333,14.8333 29,15.5C 30.3561,14.6198 31.8561,14.2865 33.5,14.5C 38.0323,14.1818 42.3656,14.5151 46.5,15.5C 43.8333,15.5 41.1667,15.5 38.5,15.5C 36.5,15.5 34.5,15.5 32.5,15.5C 31.596,16.209 31.2627,17.209 31.5,18.5C 28.2869,18.19 25.2869,18.5233 22.5,19.5C 20.6536,19.7778 19.3202,19.1112 18.5,17.5C 19.5,15.8333 20.8333,14.5 22.5,13.5C 23.2458,12.2638 23.5792,10.9305 23.5,9.5 Z"/></g>
<g><path style="opacity:1" fill="#36a1cd" d="M 25.5,0.5 C 25.5,0.166667 25.5,-0.166667 25.5,-0.5C 28.1667,-0.5 30.8333,-0.5 33.5,-0.5C 32.9423,0.789915 31.9423,1.62325 30.5,2C 31.1667,2.66667 31.8333,3.33333 32.5,4C 30.9239,6.95076 30.2572,10.1174 30.5,13.5C 31.791,13.2627 32.791,13.596 33.5,14.5C 31.8561,14.2865 30.3561,14.6198 29,15.5C 28.3333,14.8333 27.6667,14.1667 27,13.5C 24.841,15.9563 24.0077,15.2896 24.5,11.5C 25.7101,8.52264 26.7101,5.35597 27.5,2C 27.1639,0.970076 26.4972,0.470076 25.5,0.5 Z"/></g>
<g><path style="opacity:1" fill="#50ccdc" d="M 12.5,7.5 C 13.4972,7.47008 14.1639,7.97008 14.5,9C 12.8079,10.7048 11.4746,12.7048 10.5,15C 12.2227,16.7491 14.2227,17.9158 16.5,18.5C 14.1667,18.5 11.8333,18.5 9.5,18.5C 8.79105,17.596 7.79105,17.2627 6.5,17.5C 5.73688,20.1411 5.57022,22.8078 6,25.5C 6.75044,26.1258 7.58377,26.6258 8.5,27C 5.83333,28 5.83333,29 8.5,30C 7.0993,30.4101 5.76597,30.9101 4.5,31.5C 4.81,28.2869 4.47667,25.2869 3.5,22.5C 4.83168,16.5124 7.83168,11.5124 12.5,7.5 Z"/></g>
<g><path style="opacity:1" fill="#57a2aa" d="M 31.5,18.5 C 31.5,19.8333 31.5,21.1667 31.5,22.5C 30.8333,22.5 30.1667,22.5 29.5,22.5C 29.5,21.5 29.5,20.5 29.5,19.5C 27.2646,19.2053 25.2646,19.5386 23.5,20.5C 23.1667,20.5 22.8333,20.5 22.5,20.5C 22.5,20.1667 22.5,19.8333 22.5,19.5C 25.2869,18.5233 28.2869,18.19 31.5,18.5 Z"/></g>
<g><path style="opacity:1" fill="#67c7b6" d="M 9.5,18.5 C 11.8333,18.5 14.1667,18.5 16.5,18.5C 17.1667,18.5 17.5,18.8333 17.5,19.5C 15.4727,19.3379 13.4727,19.5045 11.5,20C 10.6634,21.0113 10.33,22.1779 10.5,23.5C 9.35089,23.2089 8.68423,22.3756 8.5,21C 8.52804,19.9302 8.86137,19.0968 9.5,18.5 Z"/></g>
<g><path style="opacity:1" fill="#8faf8b" d="M 23.5,20.5 C 25.2646,19.5386 27.2646,19.2053 29.5,19.5C 29.5,20.5 29.5,21.5 29.5,22.5C 28.8333,23.8333 27.8333,24.8333 26.5,25.5C 27.038,23.8828 27.3713,22.2161 27.5,20.5C 26.1667,20.5 24.8333,20.5 23.5,20.5 Z"/></g>
<g><path style="opacity:1" fill="#1f81bd" d="M 41.5,19.5 C 43.5,19.5 45.5,19.5 47.5,19.5C 50.7205,19.7803 52.7205,21.4469 53.5,24.5C 50.5739,23.5392 47.5739,22.8726 44.5,22.5C 44.5381,26.3625 44.2048,30.1958 43.5,34C 43.3917,35.6811 42.7251,36.8478 41.5,37.5C 41.5,31.5 41.5,25.5 41.5,19.5 Z"/></g>
<g><path style="opacity:1" fill="#0d59aa" d="M 57.5,9.5 C 62.3651,13.9013 65.6985,19.2346 67.5,25.5C 67.5,26.8333 67.5,28.1667 67.5,29.5C 66.5041,29.5858 65.6708,29.2524 65,28.5C 64.6667,32.5 64.3333,36.5 64,40.5C 62.5295,41.2666 61.0295,41.9332 59.5,42.5C 59.5569,41.391 59.8902,40.391 60.5,39.5C 61.4584,39.0472 62.2917,38.3805 63,37.5C 63.1667,35 63.3333,32.5 63.5,30C 63.6963,26.1952 63.0296,22.6952 61.5,19.5C 59.7806,17.4559 58.1139,15.4559 56.5,13.5C 56.4894,11.9826 55.8228,10.8159 54.5,10C 55.448,9.51722 56.448,9.35055 57.5,9.5 Z"/></g>
<g><path style="opacity:1" fill="#75baa6" d="M 17.5,19.5 C 19.0418,20.3007 20.7085,20.634 22.5,20.5C 22.5,20.8333 22.5,21.1667 22.5,21.5C 19.7742,23.3011 18.1076,22.6344 17.5,19.5 Z"/></g>
<g><path style="opacity:1" fill="#d2c75f" d="M 16.5,23.5 C 14.4017,22.0857 13.4017,22.7524 13.5,25.5C 12.8333,25.1667 12.1667,24.8333 11.5,24.5C 11.3838,21.0897 13.0504,19.7564 16.5,20.5C 16.5,21.5 16.5,22.5 16.5,23.5 Z"/></g>
<g><path style="opacity:1" fill="#2782c2" d="M 61.5,19.5 C 63.0296,22.6952 63.6963,26.1952 63.5,30C 63.3333,32.5 63.1667,35 63,37.5C 62.2917,38.3805 61.4584,39.0472 60.5,39.5C 60.3601,37.8762 61.0267,36.7096 62.5,36C 61.5268,30.5934 61.1934,25.0934 61.5,19.5 Z"/></g>
<g><path style="opacity:1" fill="#90bc84" d="M 17.5,19.5 C 18.1076,22.6344 19.7742,23.3011 22.5,21.5C 21.4525,24.7706 19.4525,25.7706 16.5,24.5C 16.5,24.1667 16.5,23.8333 16.5,23.5C 16.5,22.5 16.5,21.5 16.5,20.5C 13.0504,19.7564 11.3838,21.0897 11.5,24.5C 10.8333,24.5 10.5,24.1667 10.5,23.5C 10.33,22.1779 10.6634,21.0113 11.5,20C 13.4727,19.5045 15.4727,19.3379 17.5,19.5 Z"/></g>
<g><path style="opacity:1" fill="#42a2bb" d="M 29.5,22.5 C 30.1667,22.5 30.8333,22.5 31.5,22.5C 31.5,25.5 31.5,28.5 31.5,31.5C 29.7508,29.4686 27.7508,29.1353 25.5,30.5C 26.038,28.8828 26.3713,27.2161 26.5,25.5C 27.8333,24.8333 28.8333,23.8333 29.5,22.5 Z"/></g>
<g><path style="opacity:1" fill="#5ad1e9" d="M 38.5,15.5 C 41.1667,15.5 43.8333,15.5 46.5,15.5C 49.3267,16.1084 51.9933,17.1084 54.5,18.5C 59.1558,23.5311 60.4891,29.1977 58.5,35.5C 58.6641,32.8127 58.4974,30.146 58,27.5C 57.6924,26.6919 57.1924,26.0253 56.5,25.5C 55.8328,28.9773 55.1661,32.3107 54.5,35.5C 54.815,31.6286 54.4816,27.9619 53.5,24.5C 52.7205,21.4469 50.7205,19.7803 47.5,19.5C 47.5,19.1667 47.5,18.8333 47.5,18.5C 47.3893,17.8826 47.056,17.3826 46.5,17C 43.6353,16.8171 40.9686,16.3171 38.5,15.5 Z"/></g>
<g><path style="opacity:1" fill="#e6c73b" d="M 16.5,23.5 C 16.5,23.8333 16.5,24.1667 16.5,24.5C 17.0483,27.0838 18.715,28.0838 21.5,27.5C 21.5,30.5 21.5,33.5 21.5,36.5C 19.5853,36.7845 17.9187,36.4511 16.5,35.5C 16.6621,33.4727 16.4955,31.4727 16,29.5C 15.6174,28.944 15.1174,28.6107 14.5,28.5C 14.4431,27.391 14.1098,26.391 13.5,25.5C 13.4017,22.7524 14.4017,22.0857 16.5,23.5 Z"/></g>
<g><path style="opacity:1" fill="#b0be6c" d="M 22.5,21.5 C 22.5,21.1667 22.5,20.8333 22.5,20.5C 22.8333,20.5 23.1667,20.5 23.5,20.5C 24.8333,20.5 26.1667,20.5 27.5,20.5C 27.3713,22.2161 27.038,23.8828 26.5,25.5C 24.2636,27.5742 23.597,29.9075 24.5,32.5C 25.7298,34.2972 26.3964,36.2972 26.5,38.5C 25.1001,37.9002 24.1001,36.9002 23.5,35.5C 21.9049,30.4921 22.9049,25.9921 26.5,22C 25.2068,21.51 23.8734,21.3433 22.5,21.5 Z"/></g>
<g><path style="opacity:1" fill="#3aa8d4" d="M 40.5,19.5 C 40.5,24.8333 40.5,30.1667 40.5,35.5C 39.3065,35.0296 38.6399,34.0296 38.5,32.5C 37.7035,28.2015 37.3701,23.8682 37.5,19.5C 38.5,19.5 39.5,19.5 40.5,19.5 Z"/></g>
<g><path style="opacity:1" fill="#99bf8a" d="M 11.5,24.5 C 12.1667,24.8333 12.8333,25.1667 13.5,25.5C 14.1098,26.391 14.4431,27.391 14.5,28.5C 13.8333,28.1667 13.1667,27.8333 12.5,27.5C 11.8902,26.609 11.5569,25.609 11.5,24.5 Z"/></g>
<g><path style="opacity:1" fill="#53cbdc" d="M 9.5,18.5 C 8.86137,19.0968 8.52804,19.9302 8.5,21C 8.68423,22.3756 9.35089,23.2089 10.5,23.5C 10.5,24.1667 10.8333,24.5 11.5,24.5C 11.5569,25.609 11.8902,26.609 12.5,27.5C 12.8938,28.9672 13.2272,30.4672 13.5,32C 12.0137,34.5895 11.3471,37.4228 11.5,40.5C 10.8333,40.5 10.1667,40.5 9.5,40.5C 5.78006,38.7505 4.11339,35.7505 4.5,31.5C 5.76597,30.9101 7.0993,30.4101 8.5,30C 5.83333,29 5.83333,28 8.5,27C 7.58377,26.6258 6.75044,26.1258 6,25.5C 5.57022,22.8078 5.73688,20.1411 6.5,17.5C 7.79105,17.2627 8.79105,17.596 9.5,18.5 Z"/></g>
<g><path style="opacity:1" fill="#5fdeeb" d="M 32.5,15.5 C 34.5,15.5 36.5,15.5 38.5,15.5C 40.9686,16.3171 43.6353,16.8171 46.5,17C 47.056,17.3826 47.3893,17.8826 47.5,18.5C 43.8333,18.5 40.1667,18.5 36.5,18.5C 35.6787,21.6414 35.1787,24.9748 35,28.5C 34.5831,29.756 33.7498,30.4226 32.5,30.5C 32.5,25.5 32.5,20.5 32.5,15.5 Z"/></g>
<g><path style="opacity:1" fill="#60e0ef" d="M 58.5,35.5 C 58.3713,37.2161 58.038,38.8828 57.5,40.5C 55.5,40.5 54.5,39.5 54.5,37.5C 54.5,36.8333 54.5,36.1667 54.5,35.5C 55.1661,32.3107 55.8328,28.9773 56.5,25.5C 57.1924,26.0253 57.6924,26.6919 58,27.5C 58.4974,30.146 58.6641,32.8127 58.5,35.5 Z"/></g>
<g><path style="opacity:1" fill="#2a93c6" d="M 40.5,19.5 C 40.8333,19.5 41.1667,19.5 41.5,19.5C 41.5,25.5 41.5,31.5 41.5,37.5C 41.5,38.8333 41.5,40.1667 41.5,41.5C 44.0593,41.8016 46.3926,41.4682 48.5,40.5C 48.8333,40.5 49.1667,40.5 49.5,40.5C 50.5,40.5 51.5,40.5 52.5,40.5C 51.3406,42.2503 49.674,43.2503 47.5,43.5C 44.2136,43.0712 41.0469,43.0712 38,43.5C 37.0182,40.2253 37.8515,37.5586 40.5,35.5C 40.5,30.1667 40.5,24.8333 40.5,19.5 Z"/></g>
<g><path style="opacity:1" fill="#43a1ce" d="M 31.5,31.5 C 31.5,31.8333 31.5,32.1667 31.5,32.5C 30.1667,32.8333 28.8333,33.1667 27.5,33.5C 26.609,32.8902 25.609,32.5569 24.5,32.5C 24.8333,31.8333 25.1667,31.1667 25.5,30.5C 27.7508,29.1353 29.7508,29.4686 31.5,31.5 Z"/></g>
<g><path style="opacity:1" fill="#7bd5d9" d="M 11.5,7.5 C 11.8333,7.5 12.1667,7.5 12.5,7.5C 7.83168,11.5124 4.83168,16.5124 3.5,22.5C 2.83451,27.4868 2.16784,32.4868 1.5,37.5C 2.76696,40.3773 3.76696,43.3773 4.5,46.5C 3.59603,47.209 3.26269,48.209 3.5,49.5C 1.61854,47.0704 0.285203,44.4038 -0.5,41.5C -0.5,36.1667 -0.5,30.8333 -0.5,25.5C 1.48684,18.2028 5.48684,12.2028 11.5,7.5 Z"/></g>
<g><path style="opacity:1" fill="#7cb297" d="M 26.5,25.5 C 26.3713,27.2161 26.038,28.8828 25.5,30.5C 25.1667,31.1667 24.8333,31.8333 24.5,32.5C 23.597,29.9075 24.2636,27.5742 26.5,25.5 Z"/></g>
<g><path style="opacity:1" fill="#218abc" d="M 61.5,19.5 C 61.1934,25.0934 61.5268,30.5934 62.5,36C 61.0267,36.7096 60.3601,37.8762 60.5,39.5C 59.8902,40.391 59.5569,41.391 59.5,42.5C 57.7428,43.292 56.4095,44.6253 55.5,46.5C 54.3112,47.4287 52.9778,47.762 51.5,47.5C 54.1897,45.8065 56.1897,43.4732 57.5,40.5C 58.038,38.8828 58.3713,37.2161 58.5,35.5C 60.4891,29.1977 59.1558,23.5311 54.5,18.5C 55.8474,17.9717 57.1807,17.805 58.5,18C 57.4829,19.0495 57.3162,20.2161 58,21.5C 59.5961,22.0485 60.7627,21.3818 61.5,19.5 Z"/></g>
<g><path style="opacity:1" fill="#3fa3b7" d="M 31.5,32.5 C 31.5,34.5 31.5,36.5 31.5,38.5C 28.5159,38.2132 27.1826,36.5465 27.5,33.5C 28.8333,33.1667 30.1667,32.8333 31.5,32.5 Z"/></g>
<g><path style="opacity:1" fill="#5bd3ed" d="M 36.5,18.5 C 36.5,27.1667 36.5,35.8333 36.5,44.5C 35.5318,42.3926 35.1984,40.0593 35.5,37.5C 34.5,37.5 33.5,37.5 32.5,37.5C 32.5,35.1667 32.5,32.8333 32.5,30.5C 33.7498,30.4226 34.5831,29.756 35,28.5C 35.1787,24.9748 35.6787,21.6414 36.5,18.5 Z"/></g>
<g><path style="opacity:1" fill="#7bbda1" d="M 12.5,27.5 C 13.1667,27.8333 13.8333,28.1667 14.5,28.5C 14.6775,29.6948 15.0109,30.8615 15.5,32C 14.6086,34.2789 13.6086,36.4456 12.5,38.5C 12.6716,39.4916 12.3382,40.1583 11.5,40.5C 11.3471,37.4228 12.0137,34.5895 13.5,32C 13.2272,30.4672 12.8938,28.9672 12.5,27.5 Z"/></g>
<g><path style="opacity:1" fill="#bdc96c" d="M 14.5,28.5 C 15.1174,28.6107 15.6174,28.944 16,29.5C 16.4955,31.4727 16.6621,33.4727 16.5,35.5C 15.4739,36.853 14.1405,37.853 12.5,38.5C 13.6086,36.4456 14.6086,34.2789 15.5,32C 15.0109,30.8615 14.6775,29.6948 14.5,28.5 Z"/></g>
<g><path style="opacity:1" fill="#35a7c6" d="M 36.5,18.5 C 40.1667,18.5 43.8333,18.5 47.5,18.5C 47.5,18.8333 47.5,19.1667 47.5,19.5C 45.5,19.5 43.5,19.5 41.5,19.5C 41.1667,19.5 40.8333,19.5 40.5,19.5C 39.5,19.5 38.5,19.5 37.5,19.5C 37.3701,23.8682 37.7035,28.2015 38.5,32.5C 38.6399,34.0296 39.3065,35.0296 40.5,35.5C 37.8515,37.5586 37.0182,40.2253 38,43.5C 41.0469,43.0712 44.2136,43.0712 47.5,43.5C 44.0381,44.4816 40.3714,44.815 36.5,44.5C 36.5,35.8333 36.5,27.1667 36.5,18.5 Z"/></g>
<g><path style="opacity:1" fill="#1d7bbc" d="M 53.5,24.5 C 54.4816,27.9619 54.815,31.6286 54.5,35.5C 54.5,36.1667 54.5,36.8333 54.5,37.5C 53.5987,38.2905 52.9321,39.2905 52.5,40.5C 51.5,40.5 50.5,40.5 49.5,40.5C 50.038,38.8828 50.3713,37.2161 50.5,35.5C 51.5,35.5 52.5,35.5 53.5,35.5C 54.3782,30.9133 52.8782,27.58 49,25.5C 47.984,26.6341 47.3173,26.3008 47,24.5C 47.1371,29.8411 45.9704,34.8411 43.5,39.5C 45.0453,40.4519 46.712,40.7852 48.5,40.5C 46.3926,41.4682 44.0593,41.8016 41.5,41.5C 41.5,40.1667 41.5,38.8333 41.5,37.5C 42.7251,36.8478 43.3917,35.6811 43.5,34C 44.2048,30.1958 44.5381,26.3625 44.5,22.5C 47.5739,22.8726 50.5739,23.5392 53.5,24.5 Z"/></g>
<g><path style="opacity:1" fill="#1b73be" d="M 49.5,40.5 C 49.1667,40.5 48.8333,40.5 48.5,40.5C 46.712,40.7852 45.0453,40.4519 43.5,39.5C 45.9704,34.8411 47.1371,29.8411 47,24.5C 47.3173,26.3008 47.984,26.6341 49,25.5C 52.8782,27.58 54.3782,30.9133 53.5,35.5C 52.5,35.5 51.5,35.5 50.5,35.5C 50.3713,37.2161 50.038,38.8828 49.5,40.5 Z"/></g>
<g><path style="opacity:1" fill="#ddc746" d="M 22.5,21.5 C 23.8734,21.3433 25.2068,21.51 26.5,22C 22.9049,25.9921 21.9049,30.4921 23.5,35.5C 23.5,36.5 23.5,37.5 23.5,38.5C 21.9397,38.4809 20.4397,38.1476 19,37.5C 17.2509,37.7483 16.4176,38.7483 16.5,40.5C 16.5,41.1667 16.5,41.8333 16.5,42.5C 14.8828,43.038 13.2161,43.3713 11.5,43.5C 11.5,42.5 11.5,41.5 11.5,40.5C 12.3382,40.1583 12.6716,39.4916 12.5,38.5C 14.1405,37.853 15.4739,36.853 16.5,35.5C 17.9187,36.4511 19.5853,36.7845 21.5,36.5C 21.5,33.5 21.5,30.5 21.5,27.5C 18.715,28.0838 17.0483,27.0838 16.5,24.5C 19.4525,25.7706 21.4525,24.7706 22.5,21.5 Z"/></g>
<g><path style="opacity:1" fill="#c4c65d" d="M 23.5,35.5 C 24.1001,36.9002 25.1001,37.9002 26.5,38.5C 28.0808,40.1417 28.7475,42.1417 28.5,44.5C 26.2188,44.9227 24.5521,44.256 23.5,42.5C 23.1667,42.5 22.8333,42.5 22.5,42.5C 21.4673,39.4008 19.4673,38.7341 16.5,40.5C 16.4176,38.7483 17.2509,37.7483 19,37.5C 20.4397,38.1476 21.9397,38.4809 23.5,38.5C 23.5,37.5 23.5,36.5 23.5,35.5 Z"/></g>
<g><path style="opacity:1" fill="#89aa7a" d="M 26.5,38.5 C 27.4959,38.4142 28.3292,38.7476 29,39.5C 29.4935,41.1341 29.6602,42.8008 29.5,44.5C 29.1667,44.5 28.8333,44.5 28.5,44.5C 28.7475,42.1417 28.0808,40.1417 26.5,38.5 Z"/></g>
<g><path style="opacity:1" fill="#e3ca38" d="M 23.5,42.5 C 23.974,38.8431 25.3074,38.6764 27.5,42C 26.2068,42.49 24.8734,42.6567 23.5,42.5 Z"/></g>
<g><path style="opacity:1" fill="#67a9a3" d="M 24.5,32.5 C 25.609,32.5569 26.609,32.8902 27.5,33.5C 27.1826,36.5465 28.5159,38.2132 31.5,38.5C 31.5,40.5 31.5,42.5 31.5,44.5C 31.1667,44.5 30.8333,44.5 30.5,44.5C 30.1667,44.5 29.8333,44.5 29.5,44.5C 29.6602,42.8008 29.4935,41.1341 29,39.5C 28.3292,38.7476 27.4959,38.4142 26.5,38.5C 26.3964,36.2972 25.7298,34.2972 24.5,32.5 Z"/></g>
<g><path style="opacity:1" fill="#71bb9e" d="M 22.5,42.5 C 19.751,41.5114 17.751,42.5114 16.5,45.5C 15.8333,45.5 15.1667,45.5 14.5,45.5C 15.1667,44.5 15.8333,43.5 16.5,42.5C 16.5,41.8333 16.5,41.1667 16.5,40.5C 19.4673,38.7341 21.4673,39.4008 22.5,42.5 Z"/></g>
<g><path style="opacity:1" fill="#56d5e0" d="M 3.5,22.5 C 4.47667,25.2869 4.81,28.2869 4.5,31.5C 4.11339,35.7505 5.78006,38.7505 9.5,40.5C 9.5,40.8333 9.5,41.1667 9.5,41.5C 8.56552,42.5676 8.23219,43.901 8.5,45.5C 7.04125,45.4326 5.70792,45.7659 4.5,46.5C 3.76696,43.3773 2.76696,40.3773 1.5,37.5C 2.16784,32.4868 2.83451,27.4868 3.5,22.5 Z"/></g>
<g><path style="opacity:1" fill="#b5c974" d="M 9.5,40.5 C 10.1667,40.5 10.8333,40.5 11.5,40.5C 11.5,41.5 11.5,42.5 11.5,43.5C 13.2161,43.3713 14.8828,43.038 16.5,42.5C 15.8333,43.5 15.1667,44.5 14.5,45.5C 11.0504,46.2436 9.38377,44.9103 9.5,41.5C 9.5,41.1667 9.5,40.8333 9.5,40.5 Z"/></g>
<g><path style="opacity:1" fill="#84b791" d="M 22.5,42.5 C 22.8333,42.5 23.1667,42.5 23.5,42.5C 24.5521,44.256 26.2188,44.9227 28.5,44.5C 27.4324,45.4345 26.099,45.7678 24.5,45.5C 23.8333,45.5 23.1667,45.5 22.5,45.5C 22.5,45.1667 22.5,44.8333 22.5,44.5C 22.5,43.8333 22.5,43.1667 22.5,42.5 Z"/></g>
<g><path style="opacity:1" fill="#58cfe9" d="M 32.5,15.5 C 32.5,20.5 32.5,25.5 32.5,30.5C 32.5,32.8333 32.5,35.1667 32.5,37.5C 32.5,40.8333 32.5,44.1667 32.5,47.5C 34.1992,47.6602 35.8659,47.4935 37.5,47C 36.7476,46.3292 36.4142,45.4959 36.5,44.5C 40.3714,44.815 44.0381,44.4816 47.5,43.5C 49.674,43.2503 51.3406,42.2503 52.5,40.5C 52.9321,39.2905 53.5987,38.2905 54.5,37.5C 54.5,39.5 55.5,40.5 57.5,40.5C 56.1897,43.4732 54.1897,45.8065 51.5,47.5C 44.8689,48.331 38.2022,48.6643 31.5,48.5C 31.5,47.1667 31.5,45.8333 31.5,44.5C 31.5,42.5 31.5,40.5 31.5,38.5C 31.5,36.5 31.5,34.5 31.5,32.5C 31.5,32.1667 31.5,31.8333 31.5,31.5C 31.5,28.5 31.5,25.5 31.5,22.5C 31.5,21.1667 31.5,19.8333 31.5,18.5C 31.2627,17.209 31.596,16.209 32.5,15.5 Z"/></g>
<g><path style="opacity:1" fill="#5de2e7" d="M 32.5,37.5 C 33.5,37.5 34.5,37.5 35.5,37.5C 35.1984,40.0593 35.5318,42.3926 36.5,44.5C 36.4142,45.4959 36.7476,46.3292 37.5,47C 35.8659,47.4935 34.1992,47.6602 32.5,47.5C 32.5,44.1667 32.5,40.8333 32.5,37.5 Z"/></g>
<g><path style="opacity:1" fill="#55ccda" d="M 8.5,45.5 C 10.6112,46.7416 12.6112,46.7416 14.5,45.5C 15.1667,45.5 15.8333,45.5 16.5,45.5C 16.3893,46.1174 16.056,46.6174 15.5,47C 12.3771,47.2065 9.37707,47.8732 6.5,49C 9.94308,49.2213 10.2764,50.2213 7.5,52C 10.0746,55.6883 12.7412,59.1883 15.5,62.5C 10.0905,59.4256 6.09055,55.0922 3.5,49.5C 3.26269,48.209 3.59603,47.209 4.5,46.5C 5.70792,45.7659 7.04125,45.4326 8.5,45.5 Z"/></g>
<g><path style="opacity:1" fill="#74c3a5" d="M 9.5,41.5 C 9.38377,44.9103 11.0504,46.2436 14.5,45.5C 12.6112,46.7416 10.6112,46.7416 8.5,45.5C 8.23219,43.901 8.56552,42.5676 9.5,41.5 Z"/></g>
<g><path style="opacity:1" fill="#46a2b5" d="M 28.5,44.5 C 28.8333,44.5 29.1667,44.5 29.5,44.5C 29.8333,44.5 30.1667,44.5 30.5,44.5C 29.9862,46.4387 28.6528,47.4387 26.5,47.5C 25.2867,47.2528 24.62,46.5862 24.5,45.5C 26.099,45.7678 27.4324,45.4345 28.5,44.5 Z"/></g>
<g><path style="opacity:1" fill="#0e56b7" d="M 67.5,29.5 C 67.5,33.5 67.5,37.5 67.5,41.5C 66.8333,41.5 66.5,41.8333 66.5,42.5C 65.0359,44.6297 63.0359,45.963 60.5,46.5C 60.5,47.8333 60.5,49.1667 60.5,50.5C 58.901,50.7678 57.5676,50.4345 56.5,49.5C 57.0115,46.9785 58.0115,44.6451 59.5,42.5C 61.0295,41.9332 62.5295,41.2666 64,40.5C 64.3333,36.5 64.6667,32.5 65,28.5C 65.6708,29.2524 66.5041,29.5858 67.5,29.5 Z"/></g>
<g><path style="opacity:1" fill="#349fcd" d="M 30.5,44.5 C 30.8333,44.5 31.1667,44.5 31.5,44.5C 31.5,45.8333 31.5,47.1667 31.5,48.5C 38.2022,48.6643 44.8689,48.331 51.5,47.5C 50.5,48.1667 49.5,48.8333 48.5,49.5C 47.8333,49.5 47.1667,49.5 46.5,49.5C 45.5,49.5 44.5,49.5 43.5,49.5C 39.4862,49.3345 35.4862,49.5012 31.5,50C 33.0929,56.0411 32.7595,61.8745 30.5,67.5C 29.1667,67.5 27.8333,67.5 26.5,67.5C 26.6661,61.8236 26.4994,56.1569 26,50.5C 24.9887,49.6634 23.8221,49.33 22.5,49.5C 22.5,48.1667 22.5,46.8333 22.5,45.5C 23.1667,45.5 23.8333,45.5 24.5,45.5C 24.62,46.5862 25.2867,47.2528 26.5,47.5C 28.6528,47.4387 29.9862,46.4387 30.5,44.5 Z"/></g>
<g><path style="opacity:1" fill="#4ac4da" d="M 22.5,42.5 C 22.5,43.1667 22.5,43.8333 22.5,44.5C 20.7367,43.0462 19.4033,43.3796 18.5,45.5C 17.1459,47.6959 15.1459,49.1959 12.5,50C 14.4727,50.4955 16.4727,50.6621 18.5,50.5C 18.5,51.5 18.5,52.5 18.5,53.5C 16.2495,53.1814 14.2495,53.6814 12.5,55C 15.0755,58.0628 17.4088,61.2295 19.5,64.5C 17.847,64.3404 16.5137,63.6737 15.5,62.5C 12.7412,59.1883 10.0746,55.6883 7.5,52C 10.2764,50.2213 9.94308,49.2213 6.5,49C 9.37707,47.8732 12.3771,47.2065 15.5,47C 16.056,46.6174 16.3893,46.1174 16.5,45.5C 17.751,42.5114 19.751,41.5114 22.5,42.5 Z"/></g>
<g><path style="opacity:0.981" fill="#3eacd0" d="M 22.5,44.5 C 22.5,44.8333 22.5,45.1667 22.5,45.5C 22.5,46.8333 22.5,48.1667 22.5,49.5C 23.8221,49.33 24.9887,49.6634 26,50.5C 26.4994,56.1569 26.6661,61.8236 26.5,67.5C 26.1667,67.5 25.8333,67.5 25.5,67.5C 23.9724,66.6908 22.3057,66.0241 20.5,65.5C 21.3886,63.0902 22.0552,60.5902 22.5,58C 21.3584,54.7802 20.3584,51.4469 19.5,48C 21.0978,46.2739 20.7645,45.4406 18.5,45.5C 19.4033,43.3796 20.7367,43.0462 22.5,44.5 Z"/></g>
<g><path style="opacity:1" fill="#2d93c8" d="M 43.5,49.5 C 41.6568,50.2829 39.6568,50.9495 37.5,51.5C 36.218,56.8857 36.218,62.219 37.5,67.5C 35.1667,67.5 32.8333,67.5 30.5,67.5C 32.7595,61.8745 33.0929,56.0411 31.5,50C 35.4862,49.5012 39.4862,49.3345 43.5,49.5 Z"/></g>
<g><path style="opacity:1" fill="#2283c2" d="M 43.5,51.5 C 44.2422,53.5943 44.9089,55.761 45.5,58C 44.7678,60.9094 43.7678,63.7427 42.5,66.5C 41.8333,66.5 41.5,66.8333 41.5,67.5C 40.8333,67.5 40.1667,67.5 39.5,67.5C 41.0598,65.0465 42.0598,62.3798 42.5,59.5C 41.1667,59.5 39.8333,59.5 38.5,59.5C 38.8333,56.8333 39.1667,54.1667 39.5,51.5C 40.8333,51.5 42.1667,51.5 43.5,51.5 Z"/></g>
<g><path style="opacity:0.373" fill="#0f63b7" d="M 66.5,42.5 C 64.4961,50.8592 59.8294,57.1925 52.5,61.5C 51.3569,61.0919 50.3569,60.4252 49.5,59.5C 51.234,57.7658 53.234,56.4324 55.5,55.5C 53.9815,56.017 52.6482,55.3504 51.5,53.5C 50.5713,52.3112 50.238,50.9778 50.5,49.5C 52.7033,49.9349 54.7033,49.9349 56.5,49.5C 57.5676,50.4345 58.901,50.7678 60.5,50.5C 60.5,49.1667 60.5,47.8333 60.5,46.5C 63.0359,45.963 65.0359,44.6297 66.5,42.5 Z"/></g>
<g><path style="opacity:1" fill="#1870bb" d="M 59.5,42.5 C 58.0115,44.6451 57.0115,46.9785 56.5,49.5C 54.7033,49.9349 52.7033,49.9349 50.5,49.5C 50.238,50.9778 50.5713,52.3112 51.5,53.5C 52.6482,55.3504 53.9815,56.017 55.5,55.5C 53.234,56.4324 51.234,57.7658 49.5,59.5C 50.3569,60.4252 51.3569,61.0919 52.5,61.5C 52.5,62.1667 52.1667,62.5 51.5,62.5C 47.0876,61.7753 46.7543,59.6087 50.5,56C 49.1667,54.6667 47.8333,53.3333 46.5,52C 47.756,51.5831 48.4226,50.7498 48.5,49.5C 49.5,48.8333 50.5,48.1667 51.5,47.5C 52.9778,47.762 54.3112,47.4287 55.5,46.5C 56.4095,44.6253 57.7428,43.292 59.5,42.5 Z"/></g>
<g><path style="opacity:1" fill="#288bc3" d="M 43.5,49.5 C 44.5,49.5 45.5,49.5 46.5,49.5C 45.7095,50.4013 44.7095,51.0679 43.5,51.5C 42.1667,51.5 40.8333,51.5 39.5,51.5C 39.1667,54.1667 38.8333,56.8333 38.5,59.5C 39.8333,59.5 41.1667,59.5 42.5,59.5C 42.0598,62.3798 41.0598,65.0465 39.5,67.5C 38.8333,67.5 38.1667,67.5 37.5,67.5C 36.218,62.219 36.218,56.8857 37.5,51.5C 39.6568,50.9495 41.6568,50.2829 43.5,49.5 Z"/></g>
<g><path style="opacity:1" fill="#1e7abf" d="M 46.5,49.5 C 47.1667,49.5 47.8333,49.5 48.5,49.5C 48.4226,50.7498 47.756,51.5831 46.5,52C 47.8333,53.3333 49.1667,54.6667 50.5,56C 46.7543,59.6087 47.0876,61.7753 51.5,62.5C 48.9122,64.6246 45.9122,65.9579 42.5,66.5C 43.7678,63.7427 44.7678,60.9094 45.5,58C 44.9089,55.761 44.2422,53.5943 43.5,51.5C 44.7095,51.0679 45.7095,50.4013 46.5,49.5 Z"/></g>
<g><path style="opacity:1" fill="#44b6d7" d="M 18.5,45.5 C 20.7645,45.4406 21.0978,46.2739 19.5,48C 20.3584,51.4469 21.3584,54.7802 22.5,58C 22.0552,60.5902 21.3886,63.0902 20.5,65.5C 19.8333,65.5 19.5,65.1667 19.5,64.5C 17.4088,61.2295 15.0755,58.0628 12.5,55C 14.2495,53.6814 16.2495,53.1814 18.5,53.5C 18.5,52.5 18.5,51.5 18.5,50.5C 16.4727,50.6621 14.4727,50.4955 12.5,50C 15.1459,49.1959 17.1459,47.6959 18.5,45.5 Z"/></g>
</svg>
